<mxfile host="app.diagrams.net" modified="2021-08-11T01:44:13.939Z" agent="5.0 (Macintosh; Intel Mac OS X 10_15_7) AppleWebKit/537.36 (KHTML, like Gecko) Chrome/92.0.4515.131 Safari/537.36" etag="TeiXTUWxb5TeU4ACXdGn" version="14.9.5" type="github">
  <diagram id="3Mf8vXnVkOQam1zgAdqI" name="Page-1">
    <mxGraphModel dx="1393" dy="841" grid="1" gridSize="10" guides="1" tooltips="1" connect="1" arrows="1" fold="1" page="1" pageScale="1" pageWidth="1169" pageHeight="827" math="0" shadow="0">
      <root>
        <mxCell id="0" />
        <mxCell id="1" parent="0" />
        <mxCell id="ZJOtiEQDaQaozrBq9srw-4" value="" style="rounded=1;whiteSpace=wrap;html=1;" vertex="1" parent="1">
          <mxGeometry x="90" y="70" width="80" height="160" as="geometry" />
        </mxCell>
        <mxCell id="ZJOtiEQDaQaozrBq9srw-1" value="" style="shape=image;html=1;verticalAlign=top;verticalLabelPosition=bottom;labelBackgroundColor=#ffffff;imageAspect=0;aspect=fixed;image=https://cdn4.iconfinder.com/data/icons/logos-and-brands/512/144_Gitlab_logo_logos-128.png" vertex="1" parent="1">
          <mxGeometry x="105" y="170" width="50" height="50" as="geometry" />
        </mxCell>
        <mxCell id="ZJOtiEQDaQaozrBq9srw-3" value="" style="shape=image;html=1;verticalAlign=top;verticalLabelPosition=bottom;labelBackgroundColor=#ffffff;imageAspect=0;aspect=fixed;image=https://cdn3.iconfinder.com/data/icons/social-media-2169/24/social_media_social_media_logo_github_2-128.png" vertex="1" parent="1">
          <mxGeometry x="105" y="100" width="50" height="50" as="geometry" />
        </mxCell>
        <mxCell id="ZJOtiEQDaQaozrBq9srw-5" value="Code" style="text;html=1;strokeColor=none;fillColor=none;align=center;verticalAlign=middle;whiteSpace=wrap;rounded=0;fontSize=16;fontStyle=0" vertex="1" parent="1">
          <mxGeometry x="112" y="70" width="40" height="20" as="geometry" />
        </mxCell>
        <mxCell id="ZJOtiEQDaQaozrBq9srw-8" value="Code" style="aspect=fixed;html=1;points=[];align=center;image;fontSize=12;image=img/lib/azure2/general/Code.svg;" vertex="1" parent="1">
          <mxGeometry x="152" y="300" width="61.54" height="50" as="geometry" />
        </mxCell>
        <mxCell id="ZJOtiEQDaQaozrBq9srw-9" value="Commit" style="aspect=fixed;html=1;points=[];align=center;image;fontSize=12;image=img/lib/azure2/general/Commit.svg;" vertex="1" parent="1">
          <mxGeometry x="292.94" y="240" width="52.94" height="50" as="geometry" />
        </mxCell>
        <mxCell id="ZJOtiEQDaQaozrBq9srw-11" value="Sonar&lt;br style=&quot;font-size: 12px;&quot;&gt;Code QC" style="shape=image;html=1;verticalAlign=top;verticalLabelPosition=bottom;labelBackgroundColor=#ffffff;imageAspect=0;aspect=fixed;image=https://cdn2.iconfinder.com/data/icons/flurry-icons-for-deviants/128/sonar.png;fontSize=12;" vertex="1" parent="1">
          <mxGeometry x="292.94" y="389" width="50" height="50" as="geometry" />
        </mxCell>
        <mxCell id="ZJOtiEQDaQaozrBq9srw-13" value="" style="endArrow=oval;html=1;fontSize=16;strokeWidth=1;startArrow=oval;startFill=0;endFill=0;rounded=0;" edge="1" parent="1">
          <mxGeometry width="50" height="50" relative="1" as="geometry">
            <mxPoint x="230" y="324.5" as="sourcePoint" />
            <mxPoint x="320" y="324.5" as="targetPoint" />
          </mxGeometry>
        </mxCell>
        <mxCell id="ZJOtiEQDaQaozrBq9srw-15" value="" style="endArrow=none;html=1;fontSize=16;strokeWidth=1;startArrow=oval;startFill=0;endFill=0;rounded=0;" edge="1" parent="1">
          <mxGeometry width="50" height="50" relative="1" as="geometry">
            <mxPoint x="320" y="379" as="sourcePoint" />
            <mxPoint x="320" y="328" as="targetPoint" />
          </mxGeometry>
        </mxCell>
        <mxCell id="ZJOtiEQDaQaozrBq9srw-16" value="" style="endArrow=none;html=1;fontSize=12;strokeColor=#000000;strokeWidth=1;" edge="1" parent="1">
          <mxGeometry width="50" height="50" relative="1" as="geometry">
            <mxPoint x="323" y="324.5" as="sourcePoint" />
            <mxPoint x="390" y="324.5" as="targetPoint" />
          </mxGeometry>
        </mxCell>
        <mxCell id="ZJOtiEQDaQaozrBq9srw-35" style="edgeStyle=none;rounded=0;orthogonalLoop=1;jettySize=auto;html=1;exitX=0.5;exitY=1;exitDx=0;exitDy=0;dashed=1;fontSize=12;startArrow=none;startFill=0;endArrow=none;endFill=0;strokeColor=#000000;strokeWidth=1;" edge="1" parent="1" source="ZJOtiEQDaQaozrBq9srw-19">
          <mxGeometry relative="1" as="geometry">
            <mxPoint x="460" y="450" as="targetPoint" />
          </mxGeometry>
        </mxCell>
        <mxCell id="ZJOtiEQDaQaozrBq9srw-19" value="Build" style="text;html=1;strokeColor=none;fillColor=none;align=center;verticalAlign=middle;whiteSpace=wrap;rounded=0;fontSize=12;" vertex="1" parent="1">
          <mxGeometry x="430" y="330" width="40" height="20" as="geometry" />
        </mxCell>
        <mxCell id="ZJOtiEQDaQaozrBq9srw-32" style="edgeStyle=none;rounded=0;orthogonalLoop=1;jettySize=auto;html=1;exitX=0.25;exitY=0;exitDx=0;exitDy=0;dashed=1;fontSize=12;startArrow=none;startFill=0;endArrow=none;endFill=0;strokeColor=#000000;strokeWidth=1;" edge="1" parent="1" source="ZJOtiEQDaQaozrBq9srw-20">
          <mxGeometry relative="1" as="geometry">
            <mxPoint x="440" y="230" as="targetPoint" />
          </mxGeometry>
        </mxCell>
        <mxCell id="ZJOtiEQDaQaozrBq9srw-20" value="Unit Test" style="text;html=1;strokeColor=none;fillColor=none;align=center;verticalAlign=middle;whiteSpace=wrap;rounded=0;fontSize=12;" vertex="1" parent="1">
          <mxGeometry x="460" y="300" width="60" height="20" as="geometry" />
        </mxCell>
        <mxCell id="ZJOtiEQDaQaozrBq9srw-21" value="Intergration Test" style="text;html=1;strokeColor=none;fillColor=none;align=center;verticalAlign=middle;whiteSpace=wrap;rounded=0;fontSize=12;" vertex="1" parent="1">
          <mxGeometry x="485" y="330" width="100" height="20" as="geometry" />
        </mxCell>
        <mxCell id="ZJOtiEQDaQaozrBq9srw-22" value="" style="endArrow=oval;html=1;fontSize=16;strokeWidth=1;startArrow=none;startFill=0;endFill=0;rounded=0;dashed=1;" edge="1" parent="1">
          <mxGeometry width="50" height="50" relative="1" as="geometry">
            <mxPoint x="390" y="324.5" as="sourcePoint" />
            <mxPoint x="450" y="324.5" as="targetPoint" />
          </mxGeometry>
        </mxCell>
        <mxCell id="ZJOtiEQDaQaozrBq9srw-23" value="" style="endArrow=oval;html=1;fontSize=16;strokeWidth=1;startArrow=none;startFill=0;endFill=0;rounded=0;dashed=1;" edge="1" parent="1">
          <mxGeometry width="50" height="50" relative="1" as="geometry">
            <mxPoint x="454" y="324.5" as="sourcePoint" />
            <mxPoint x="490" y="324" as="targetPoint" />
          </mxGeometry>
        </mxCell>
        <mxCell id="ZJOtiEQDaQaozrBq9srw-24" value="" style="endArrow=oval;html=1;fontSize=16;strokeWidth=1;startArrow=none;startFill=0;endFill=0;rounded=0;dashed=1;" edge="1" parent="1">
          <mxGeometry width="50" height="50" relative="1" as="geometry">
            <mxPoint x="493" y="324" as="sourcePoint" />
            <mxPoint x="529" y="324.5" as="targetPoint" />
          </mxGeometry>
        </mxCell>
        <mxCell id="ZJOtiEQDaQaozrBq9srw-25" value="" style="endArrow=oval;html=1;fontSize=16;strokeWidth=1;startArrow=none;startFill=0;endFill=0;rounded=0;dashed=1;" edge="1" parent="1">
          <mxGeometry width="50" height="50" relative="1" as="geometry">
            <mxPoint x="532" y="324.5" as="sourcePoint" />
            <mxPoint x="547" y="324.5" as="targetPoint" />
          </mxGeometry>
        </mxCell>
        <mxCell id="ZJOtiEQDaQaozrBq9srw-29" value="" style="rounded=0;whiteSpace=wrap;html=1;fontSize=12;fillColor=none;" vertex="1" parent="1">
          <mxGeometry x="880" y="400" width="215" height="80" as="geometry" />
        </mxCell>
        <mxCell id="ZJOtiEQDaQaozrBq9srw-27" value="" style="endArrow=oval;html=1;fontSize=16;strokeWidth=1;startArrow=none;startFill=0;endFill=0;rounded=0;dashed=1;" edge="1" parent="1">
          <mxGeometry width="50" height="50" relative="1" as="geometry">
            <mxPoint x="550" y="324.5" as="sourcePoint" />
            <mxPoint x="565" y="324.5" as="targetPoint" />
          </mxGeometry>
        </mxCell>
        <mxCell id="ZJOtiEQDaQaozrBq9srw-28" value="" style="endArrow=oval;html=1;fontSize=16;strokeWidth=1;startArrow=none;startFill=0;endFill=0;rounded=0;dashed=1;" edge="1" parent="1">
          <mxGeometry width="50" height="50" relative="1" as="geometry">
            <mxPoint x="568" y="324.5" as="sourcePoint" />
            <mxPoint x="690" y="324.5" as="targetPoint" />
          </mxGeometry>
        </mxCell>
        <mxCell id="ZJOtiEQDaQaozrBq9srw-30" value="CI Pipelines" style="text;html=1;strokeColor=none;fillColor=none;align=center;verticalAlign=middle;whiteSpace=wrap;rounded=0;fontSize=12;" vertex="1" parent="1">
          <mxGeometry x="452.5" y="369" width="100" height="20" as="geometry" />
        </mxCell>
        <mxCell id="ZJOtiEQDaQaozrBq9srw-31" value="TEST" style="text;html=1;strokeColor=none;fillColor=none;align=center;verticalAlign=middle;whiteSpace=wrap;rounded=0;fontSize=12;fontStyle=1" vertex="1" parent="1">
          <mxGeometry x="452.5" y="255" width="100" height="20" as="geometry" />
        </mxCell>
        <mxCell id="ZJOtiEQDaQaozrBq9srw-33" value="JUnit&lt;br&gt;Prowermock&lt;br&gt;Mockito" style="text;html=1;strokeColor=none;fillColor=none;align=center;verticalAlign=middle;whiteSpace=wrap;rounded=0;fontSize=12;" vertex="1" parent="1">
          <mxGeometry x="400" y="180" width="80" height="50" as="geometry" />
        </mxCell>
        <mxCell id="ZJOtiEQDaQaozrBq9srw-34" value="" style="rounded=1;whiteSpace=wrap;html=1;fontSize=12;fillColor=none;" vertex="1" parent="1">
          <mxGeometry x="402.5" y="180" width="75" height="50" as="geometry" />
        </mxCell>
        <mxCell id="ZJOtiEQDaQaozrBq9srw-36" value="Jenkins" style="shape=image;html=1;verticalAlign=top;verticalLabelPosition=bottom;labelBackgroundColor=#ffffff;imageAspect=0;aspect=fixed;image=https://cdn4.iconfinder.com/data/icons/logos-brands-5/24/jenkins-128.png;fontSize=12;fillColor=none;" vertex="1" parent="1">
          <mxGeometry x="440" y="460" width="40" height="40" as="geometry" />
        </mxCell>
        <mxCell id="ZJOtiEQDaQaozrBq9srw-37" value="" style="rounded=1;whiteSpace=wrap;html=1;fontSize=12;fillColor=none;" vertex="1" parent="1">
          <mxGeometry x="430" y="450" width="60" height="80" as="geometry" />
        </mxCell>
      </root>
    </mxGraphModel>
  </diagram>
</mxfile>
